Coordinates
version=1
nRows=12
nColumns=24
inDegrees=yes

Units are S.I. units (second, meters, Newtons, ...)
Angles are in degrees.

endheader
time	pelvis_tilt	pelvis_list	pelvis_rotation	pelvis_tx	pelvis_ty	pelvis_tz	hip_flexion_r	hip_adduction_r	hip_rotation_r	knee_angle_r	ankle_angle_r	subtalar_angle_r	mtp_angle_r	hip_flexion_l	hip_adduction_l	hip_rotation_l	knee_angle_l	ankle_angle_l	subtalar_angle_l	mtp_angle_l	lumbar_extension	lumbar_bending	lumbar_rotation
      2.39000000	    -12.78520694	      9.38230653	     -1.20117025	     -2.31677923	     -0.03999252	      0.47319388	     17.17958761	    -10.94381640	      4.03004154	    -58.56318768	    -12.27211689	      1.71505018	     17.23300276	     31.52188207	     14.36683329	      6.22550787	    -25.50559604	     -2.06824712	     -5.45031063	      0.12537702	      9.54967615	    -10.88945606	     13.68487036
      2.39500000	    -12.75193707	      9.39431049	     -1.11535522	     -2.30974259	     -0.03868901	      0.47274873	     18.18916838	    -11.03559280	      3.97219017	    -59.30714383	    -11.97715365	      1.13430550	     17.24337375	     30.78328252	     14.46610123	      6.39210056	    -25.10661049	     -1.80426270	     -5.42973946	      0.17379061	      9.44179822	    -10.91037441	     13.42619497
      2.40000000	    -12.74599631	      9.34897481	     -1.02558898	     -2.30276898	     -0.03737578	      0.47230552	     19.21448604	    -11.05814921	      3.88681322	    -59.96016603	    -11.66771779	      0.60088749	     17.22204565	     30.07158159	     14.50952918	      6.60064016	    -24.70992853	     -1.56162153	     -5.43130388	      0.19395778	      9.35731506	    -10.86725695	     13.15138184
      2.40500000	    -12.73357432	      9.26326505	     -0.94956517	     -2.29583457	     -0.03599522	      0.47185851	     20.20900843	    -11.02479687	      3.81887524	    -60.50330552	    -11.29092617	      0.23145534	     17.25893657	     29.34022879	     14.50679269	      6.83954071	    -24.29201342	     -1.34812762	     -5.43552042	      0.19194335	      9.26762145	    -10.77071078	     12.87731185
      2.41000000	    -12.75300658	      9.14512668	     -0.80212806	     -2.28891016	     -0.03468407	      0.47129726	     21.21061655	    -11.00038529	      3.62321643	    -60.97245496	    -10.91532629	     -0.07207736	     17.29275245	     28.63987750	     14.50989439	      7.15265145	    -23.88945710	     -1.11893474	     -5.48431640	      0.15026189	      9.20352919	    -10.65778614	     12.54694147
      2.41500000	    -12.76436428	      8.98452360	     -0.66068512	     -2.28201482	     -0.03331448	      0.47071634	     22.17389863	    -10.92290015	      3.43227164	    -61.33476036	    -10.49185865	     -0.24693266	     17.37626835	     27.91784565	     14.46774517	      7.50986942	    -23.46911542	     -0.91606507	     -5.54671959	      0.06190278	      9.13105993	    -10.48749272	     12.19861178
      2.42000000	    -12.75961169	      8.79506344	     -0.50025486	     -2.27515591	     -0.03190287	      0.47009239	     23.08756134	    -10.82468316	      3.20390705	    -61.59491855	    -10.04036683	     -0.33745106	     17.51024635	     27.17529491	     14.40359918	      7.88129063	    -23.04549040	     -0.73795486	     -5.62138685	     -0.08728124	      9.03787577	    -10.29042888	     11.80200507
      2.42500000	    -12.73762998	      8.59178718	     -0.34388827	     -2.26827721	     -0.03045693	      0.46946137	     23.95944558	    -10.71133614	      2.96566939	    -61.76198641	     -9.61719604	     -0.37558222	     17.67711836	     26.39514748	     14.31748924	      8.27088703	    -22.58986009	     -0.54921210	     -5.68254580	     -0.24376953	      8.93721032	    -10.07361164	     11.42971477
      2.43000000	    -12.71155126	      8.37527472	     -0.20115314	     -2.26141070	     -0.02901192	      0.46885253	     24.81503714	    -10.57483128	      2.72907943	    -61.85053059	     -9.23575625	     -0.38545823	     17.84047462	     25.59903103	     14.20154152	      8.67010080	    -22.10771689	     -0.35217691	     -5.72278771	     -0.36494283	      8.84073961	     -9.84271059	     11.10648658
      2.43500000	    -12.62958538	      8.14245361	     -0.00244702	     -2.25455855	     -0.02747954	      0.46816814	     25.55509025	    -10.44787855	      2.42193237	    -61.82430345	     -8.85596643	     -0.39548456	     18.08192644	     24.73467788	     14.08994952	      9.09166510	    -21.61920171	     -0.18555363	     -5.76217924	     -0.62182995	      8.67134795	     -9.60476814	     10.62881697
      2.44000000	    -12.59579476	      7.86376396	      0.16795736	     -2.24772152	     -0.02601878	      0.46753584	     26.33503196	    -10.24673541	      2.13444087	    -61.72375945	     -8.48553885	     -0.36980748	     18.24495298	     23.92972031	     13.89826775	      9.45844536	    -21.12399436	     -0.01009976	     -5.76229172	     -0.72838503	      8.56978317	     -9.30893923	     10.25517316
      2.44500000	    -12.52230949	      7.59893257	      0.35685112	     -2.24092156	     -0.02455802	      0.46690855	     27.05308535	    -10.06765719	      1.82327902	    -61.55289846	     -8.15422737	     -0.37102515	     18.39748591	     23.07279422	     13.71800024	      9.86114189	    -20.60635053	      0.16431548	     -5.74129018	     -0.82812094	      8.41896758	     -9.03744830	      9.83402884
